<svg width="41" height="28" viewBox="0 0 41 28" fill="none" xmlns="http://www.w3.org/2000/svg">
<path fill-rule="evenodd" clip-rule="evenodd" d="M31.745 2.17L26.82 3.65L30.1 12.228C32.0766 11.7438 34.1634 12.0311 35.9356 13.0314C37.7078 14.0317 39.0322 15.6697 39.6392 17.6121C40.2462 19.5544 40.0901 21.6551 39.2028 23.4865C38.3155 25.3178 36.7636 26.7422 34.8631 27.4697C32.9626 28.1971 30.8562 28.173 28.9729 27.4021C27.0895 26.6312 25.5708 25.1716 24.7257 23.3204C23.8807 21.4691 23.7729 19.3654 24.4243 17.4375C25.0757 15.5096 26.4373 13.9023 28.232 12.943L26.584 8.633L20.902 20.435C20.8201 20.6045 20.692 20.7475 20.5324 20.8475C20.3728 20.9474 20.1883 21.0003 20 21H15.938C15.6813 23.0173 14.6661 24.8611 13.0988 26.1568C11.5314 27.4525 9.52954 28.1027 7.49997 27.9754C5.47041 27.848 3.56549 26.9527 2.17238 25.4713C0.779274 23.9898 0.00252301 22.0336 2.22086e-06 20C-0.00151396 17.964 0.77334 16.004 2.16668 14.5193C3.56002 13.0347 5.467 12.1372 7.49904 12.0097C9.53109 11.8823 11.5353 12.5343 13.1033 13.8331C14.6712 15.132 15.685 16.9797 15.938 19H18.438L13.558 5.33601C13.5195 5.22816 13.4999 5.1145 13.5 5H12C11.7348 5 11.4804 4.89465 11.2929 4.70711C11.1054 4.51957 11 4.26522 11 4C11 3.73479 11.1054 3.48043 11.2929 3.2929C11.4804 3.10536 11.7348 3 12 3H16.5C16.7652 3 17.0196 3.10536 17.2071 3.2929C17.3946 3.48043 17.5 3.73479 17.5 4C17.5 4.26522 17.3946 4.51957 17.2071 4.70711C17.0196 4.89465 16.7652 5 16.5 5H15.562L17.404 10.157L25.531 5.88L24.566 3.35701C24.5169 3.22852 24.4948 3.09129 24.5011 2.95389C24.5075 2.81648 24.5421 2.68186 24.6028 2.55844C24.6635 2.43502 24.7491 2.32546 24.854 2.2366C24.959 2.14774 25.0812 2.08149 25.213 2.042L31.17 0.255005L31.745 2.17V2.17ZM18.083 12.06L20.055 17.58L24.285 8.796L18.083 12.06V12.06ZM31.066 20.357L28.953 14.83C27.6573 15.5945 26.696 16.8178 26.2597 18.2576C25.8234 19.6973 25.9439 21.2485 26.5973 22.6036C27.2507 23.9587 28.3894 25.019 29.7876 25.5741C31.1858 26.1293 32.7416 26.139 34.1467 25.6012C35.5517 25.0634 36.7034 24.0174 37.3736 22.6705C38.0438 21.3236 38.1835 19.7741 37.7651 18.329C37.3467 16.8839 36.4007 15.6487 35.1146 14.8683C33.8284 14.0878 32.296 13.8189 30.821 14.115L32.934 19.643C33.0244 19.8898 33.014 20.1622 32.9051 20.4014C32.7962 20.6405 32.5975 20.8272 32.3521 20.9211C32.1066 21.0149 31.834 21.0083 31.5934 20.9028C31.3527 20.7972 31.1633 20.6011 31.066 20.357V20.357ZM13.917 19H8C7.73479 19 7.48043 19.1054 7.2929 19.2929C7.10536 19.4804 7 19.7348 7 20C7 20.2652 7.10536 20.5196 7.2929 20.7071C7.48043 20.8946 7.73479 21 8 21H13.917C13.6623 22.4801 12.8619 23.8109 11.6739 24.7297C10.4859 25.6485 8.99666 26.0885 7.50009 25.9629C6.00352 25.8373 4.60841 25.1553 3.59016 24.0513C2.57191 22.9474 2.00452 21.5018 2 20C1.99863 18.4946 2.56319 17.0437 3.58168 15.9352C4.60017 14.8266 5.99816 14.1414 7.49828 14.0155C8.9984 13.8897 10.491 14.3323 11.68 15.2556C12.869 16.1789 13.6675 17.5154 13.917 19V19Z" fill="black"/>
</svg>
