<svg width="33" height="23" viewBox="0 0 33 23" fill="none" xmlns="http://www.w3.org/2000/svg">
<path d="M16.5 14.7509C15.5925 14.7509 14.8159 14.4323 14.1702 13.7951C13.5234 13.159 13.2 12.394 13.2 11.5C13.2 10.606 13.5234 9.84042 14.1702 9.20325C14.8159 8.56716 15.5925 8.24912 16.5 8.24912C17.4075 8.24912 18.1846 8.56716 18.8314 9.20325C19.4771 9.84042 19.8 10.606 19.8 11.5C19.8 12.394 19.4771 13.159 18.8314 13.7951C18.1846 14.4323 17.4075 14.7509 16.5 14.7509ZM4.82625 23C3.34125 21.51 2.1659 19.7827 1.3002 17.8181C0.4334 15.8546 0 13.7485 0 11.5C0 9.22438 0.4334 7.10426 1.3002 5.13965C2.1659 3.17611 3.34125 1.4629 4.82625 0L7.1775 2.31625C5.9675 3.50824 5.01875 4.88987 4.33125 6.46113C3.64375 8.03239 3.3 9.71201 3.3 11.5C3.3 13.3151 3.64375 15.0082 4.33125 16.5795C5.01875 18.1508 5.9675 19.5188 7.1775 20.6837L4.82625 23ZM9.4875 18.4081C8.6075 17.5141 7.90625 16.4776 7.38375 15.2987C6.86125 14.1208 6.6 12.8545 6.6 11.5C6.6 10.1184 6.86125 8.83807 7.38375 7.65908C7.90625 6.48118 8.6075 5.45877 9.4875 4.59187L11.8388 6.90813C11.2338 7.50412 10.7591 8.19493 10.4148 8.98056C10.0716 9.76619 9.9 10.606 9.9 11.5C9.9 12.394 10.0716 13.2338 10.4148 14.0194C10.7591 14.8051 11.2338 15.4959 11.8388 16.0919L9.4875 18.4081ZM23.5125 18.4081L21.1612 16.0919C21.7662 15.4959 22.2409 14.8051 22.5852 14.0194C22.9284 13.2338 23.1 12.394 23.1 11.5C23.1 10.606 22.9284 9.76619 22.5852 8.98056C22.2409 8.19493 21.7662 7.50412 21.1612 6.90813L23.5125 4.59187C24.3925 5.45877 25.0937 6.48118 25.6162 7.65908C26.1387 8.83807 26.4 10.1184 26.4 11.5C26.4 12.8545 26.1387 14.1208 25.6162 15.2987C25.0937 16.4776 24.3925 17.5141 23.5125 18.4081ZM28.1738 23L25.8225 20.6837C27.0325 19.4918 27.9812 18.1101 28.6687 16.5389C29.3562 14.9676 29.7 13.288 29.7 11.5C29.7 9.68492 29.3562 7.99175 28.6687 6.42049C27.9812 4.84923 27.0325 3.48115 25.8225 2.31625L28.1738 0C29.6588 1.4629 30.8341 3.17611 31.6998 5.13965C32.5666 7.10426 33 9.22438 33 11.5C33 13.7485 32.5666 15.8546 31.6998 17.8181C30.8341 19.7827 29.6588 21.51 28.1738 23Z" fill="black"/>
</svg>
