<svg width="23" height="26" viewBox="0 0 23 26" fill="none" xmlns="http://www.w3.org/2000/svg">
<path d="M6.94107 0.89832C7.2183 0.34775 7.78817 0 8.40938 0H14.5906C15.2118 0 15.7817 0.34775 16.0589 0.89832L16.4286 1.625H21.3571C22.2658 1.625 23 2.3527 23 3.25C23 4.1473 22.2658 4.875 21.3571 4.875H1.64286C0.735692 4.875 0 4.1473 0 3.25C0 2.3527 0.735692 1.625 1.64286 1.625H6.57143L6.94107 0.89832V0.89832ZM20.2688 23.6691C20.1866 24.9996 19.1136 26 17.8096 26H5.1904C3.88895 26 2.81185 24.9996 2.73074 23.6691L1.59665 6.5H21.3571L20.2688 23.6691Z" fill="#E74C3C"/>
</svg>
